<?xml version="1.0" standalone="no"?>
<svg xmlns="http://www.w3.org/2000/svg" width="500" height="500"><defs><clipPath id="clip-path-dot-color"><path d="M 18 210v 16h 8a 8 8, 0, 0, 0, 0 -16" transform="rotate(-90,26,218)"/><path d="M 18 226v 16h 16v -8a 8 8, 0, 0, 0, -8 -8" transform="rotate(180,26,234)"/><circle cx="26" cy="298" r="8" transform="rotate(0,26,298)"/><path d="M 18 322v 16h 8a 8 8, 0, 0, 0, 0 -16" transform="rotate(-90,26,330)"/><path d="M 18 338v 16h 16v -8a 8 8, 0, 0, 0, -8 -8" transform="rotate(180,26,346)"/><path d="M 34 146v 16h 16v -8a 8 8, 0, 0, 0, -8 -8" transform="rotate(-90,42,154)"/><path d="M 34 162v 16h 16v -8a 8 8, 0, 0, 0, -8 -8" transform="rotate(180,42,170)"/><path d="M 34 226v 16h 16v -8a 8 8, 0, 0, 0, -8 -8" transform="rotate(0,42,234)"/><path d="M 34 242v 16h 16v -8a 8 8, 0, 0, 0, -8 -8" transform="rotate(180,42,250)"/><circle cx="42" cy="282" r="8" transform="rotate(0,42,282)"/><path d="M 34 338v 16h 8a 8 8, 0, 0, 0, 0 -16" transform="rotate(0,42,346)"/><path d="M 50 146v 16h 16v -8a 8 8, 0, 0, 0, -8 -8" transform="rotate(0,58,154)"/><path d="M 50 162v 16h 16v -8a 8 8, 0, 0, 0, -8 -8" transform="rotate(90,58,170)"/><path d="M 50 210v 16h 8a 8 8, 0, 0, 0, 0 -16" transform="rotate(180,58,218)"/><rect x="50" y="242" width="16" height="16" transform="rotate(0,58,250)"/><path d="M 50 258v 16h 16v -8a 8 8, 0, 0, 0, -8 -8" transform="rotate(180,58,266)"/><path d="M 50 306v 16h 8a 8 8, 0, 0, 0, 0 -16" transform="rotate(-90,58,314)"/><path d="M 50 322v 16h 16v -8a 8 8, 0, 0, 0, -8 -8" transform="rotate(180,58,330)"/><path d="M 66 210v 16h 8a 8 8, 0, 0, 0, 0 -16" transform="rotate(0,74,218)"/><path d="M 66 242v 16h 16v -8a 8 8, 0, 0, 0, -8 -8" transform="rotate(0,74,250)"/><rect x="66" y="258" width="16" height="16" transform="rotate(0,74,266)"/><path d="M 66 290v 16h 8a 8 8, 0, 0, 0, 0 -16" transform="rotate(180,74,298)"/><rect x="66" y="322" width="16" height="16" transform="rotate(0,74,330)"/><circle cx="90" cy="202" r="8" transform="rotate(0,90,202)"/><path d="M 82 226v 16h 8a 8 8, 0, 0, 0, 0 -16" transform="rotate(180,90,234)"/><path d="M 82 258v 16h 16v -8a 8 8, 0, 0, 0, -8 -8" transform="rotate(0,90,266)"/><rect x="82" y="274" width="16" height="16" transform="rotate(0,90,282)"/><path d="M 82 290v 16h 16v -8a 8 8, 0, 0, 0, -8 -8" transform="rotate(90,90,298)"/><rect x="82" y="322" width="16" height="16" transform="rotate(0,90,330)"/><path d="M 98 162v 16h 8a 8 8, 0, 0, 0, 0 -16" transform="rotate(-90,106,170)"/><path d="M 98 178v 16h 16v -8a 8 8, 0, 0, 0, -8 -8" transform="rotate(180,106,186)"/><path d="M 98 226v 16h 8a 8 8, 0, 0, 0, 0 -16" transform="rotate(0,106,234)"/><rect x="98" y="274" width="16" height="16" transform="rotate(0,106,282)"/><path d="M 98 306v 16h 16v -8a 8 8, 0, 0, 0, -8 -8" transform="rotate(-90,106,314)"/><rect x="98" y="322" width="16" height="16" transform="rotate(0,106,330)"/><path d="M 98 338v 16h 16v -8a 8 8, 0, 0, 0, -8 -8" transform="rotate(180,106,346)"/><circle cx="122" cy="154" r="8" transform="rotate(0,122,154)"/><rect x="114" y="178" width="16" height="16" transform="rotate(0,122,186)"/><path d="M 114 210v 16h 8a 8 8, 0, 0, 0, 0 -16" transform="rotate(180,122,218)"/><circle cx="122" cy="250" r="8" transform="rotate(0,122,250)"/><rect x="114" y="274" width="16" height="16" transform="rotate(0,122,282)"/><path d="M 114 306v 16h 8a 8 8, 0, 0, 0, 0 -16" transform="rotate(0,122,314)"/><rect x="114" y="338" width="16" height="16" transform="rotate(0,122,346)"/><path d="M 130 178v 16h 16v -8a 8 8, 0, 0, 0, -8 -8" transform="rotate(0,138,186)"/><rect x="130" y="194" width="16" height="16" transform="rotate(0,138,202)"/><rect x="130" y="210" width="16" height="16" transform="rotate(0,138,218)"/><rect x="130" y="274" width="16" height="16" transform="rotate(0,138,282)"/><path d="M 130 290v 16h 16v -8a 8 8, 0, 0, 0, -8 -8" transform="rotate(180,138,298)"/><path d="M 130 338v 16h 8a 8 8, 0, 0, 0, 0 -16" transform="rotate(0,138,346)"/><path d="M 146 34v 16h 16v -8a 8 8, 0, 0, 0, -8 -8" transform="rotate(-90,154,42)"/><rect x="146" y="50" width="16" height="16" transform="rotate(0,154,58)"/><path d="M 146 66v 16h 16v -8a 8 8, 0, 0, 0, -8 -8" transform="rotate(180,154,74)"/><path d="M 146 98v 16h 16v -8a 8 8, 0, 0, 0, -8 -8" transform="rotate(-90,154,106)"/><path d="M 146 114v 16h 8a 8 8, 0, 0, 0, 0 -16" transform="rotate(90,154,122)"/><path d="M 146 162v 16h 8a 8 8, 0, 0, 0, 0 -16" transform="rotate(180,154,170)"/><path d="M 146 194v 16h 16v -8a 8 8, 0, 0, 0, -8 -8" transform="rotate(0,154,202)"/><rect x="146" y="210" width="16" height="16" transform="rotate(0,154,218)"/><path d="M 146 242v 16h 16v -8a 8 8, 0, 0, 0, -8 -8" transform="rotate(-90,154,250)"/><rect x="146" y="258" width="16" height="16" transform="rotate(0,154,266)"/><rect x="146" y="274" width="16" height="16" transform="rotate(0,154,282)"/><rect x="146" y="290" width="16" height="16" transform="rotate(0,154,298)"/><rect x="146" y="306" width="16" height="16" transform="rotate(0,154,314)"/><path d="M 146 322v 16h 16v -8a 8 8, 0, 0, 0, -8 -8" transform="rotate(180,154,330)"/><path d="M 146 434v 16h 16v -8a 8 8, 0, 0, 0, -8 -8" transform="rotate(-90,154,442)"/><path d="M 146 450v 16h 8a 8 8, 0, 0, 0, 0 -16" transform="rotate(90,154,458)"/><rect x="162" y="34" width="16" height="16" transform="rotate(0,170,42)"/><rect x="162" y="50" width="16" height="16" transform="rotate(0,170,58)"/><rect x="162" y="66" width="16" height="16" transform="rotate(0,170,74)"/><rect x="162" y="82" width="16" height="16" transform="rotate(0,170,90)"/><path d="M 162 98v 16h 16v -8a 8 8, 0, 0, 0, -8 -8" transform="rotate(90,170,106)"/><path d="M 162 146v 16h 16v -8a 8 8, 0, 0, 0, -8 -8" transform="rotate(-90,170,154)"/><rect x="162" y="162" width="16" height="16" transform="rotate(0,170,170)"/><path d="M 162 178v 16h 8a 8 8, 0, 0, 0, 0 -16" transform="rotate(90,170,186)"/><path d="M 162 210v 16h 16v -8a 8 8, 0, 0, 0, -8 -8" transform="rotate(0,170,218)"/><rect x="162" y="226" width="16" height="16" transform="rotate(0,170,234)"/><rect x="162" y="242" width="16" height="16" transform="rotate(0,170,250)"/><rect x="162" y="258" width="16" height="16" transform="rotate(0,170,266)"/><rect x="162" y="274" width="16" height="16" transform="rotate(0,170,282)"/><path d="M 162 306v 16h 16v -8a 8 8, 0, 0, 0, -8 -8" transform="rotate(0,170,314)"/><rect x="162" y="322" width="16" height="16" transform="rotate(0,170,330)"/><path d="M 162 338v 16h 16v -8a 8 8, 0, 0, 0, -8 -8" transform="rotate(180,170,346)"/><path d="M 162 370v 16h 16v -8a 8 8, 0, 0, 0, -8 -8" transform="rotate(-90,170,378)"/><rect x="162" y="386" width="16" height="16" transform="rotate(0,170,394)"/><rect x="162" y="402" width="16" height="16" transform="rotate(0,170,410)"/><rect x="162" y="418" width="16" height="16" transform="rotate(0,170,426)"/><rect x="162" y="434" width="16" height="16" transform="rotate(0,170,442)"/><circle cx="170" cy="474" r="8" transform="rotate(0,170,474)"/><path d="M 178 18v 16h 16v -8a 8 8, 0, 0, 0, -8 -8" transform="rotate(-90,186,26)"/><rect x="178" y="34" width="16" height="16" transform="rotate(0,186,42)"/><path d="M 178 66v 16h 16v -8a 8 8, 0, 0, 0, -8 -8" transform="rotate(0,186,74)"/><path d="M 178 82v 16h 16v -8a 8 8, 0, 0, 0, -8 -8" transform="rotate(90,186,90)"/><circle cx="186" cy="122" r="8" transform="rotate(0,186,122)"/><rect x="178" y="146" width="16" height="16" transform="rotate(0,186,154)"/><path d="M 178 162v 16h 16v -8a 8 8, 0, 0, 0, -8 -8" transform="rotate(90,186,170)"/><path d="M 178 194v 16h 8a 8 8, 0, 0, 0, 0 -16" transform="rotate(180,186,202)"/><path d="M 178 242v 16h 8a 8 8, 0, 0, 0, 0 -16" transform="rotate(0,186,250)"/><rect x="178" y="274" width="16" height="16" transform="rotate(0,186,282)"/><path d="M 178 290v 16h 8a 8 8, 0, 0, 0, 0 -16" transform="rotate(90,186,298)"/><rect x="178" y="338" width="16" height="16" transform="rotate(0,186,346)"/><path d="M 178 370v 16h 8a 8 8, 0, 0, 0, 0 -16" transform="rotate(0,186,378)"/><rect x="178" y="402" width="16" height="16" transform="rotate(0,186,410)"/><path d="M 178 434v 16h 16v -8a 8 8, 0, 0, 0, -8 -8" transform="rotate(0,186,442)"/><path d="M 178 450v 16h 8a 8 8, 0, 0, 0, 0 -16" transform="rotate(90,186,458)"/><rect x="194" y="18" width="16" height="16" transform="rotate(0,202,26)"/><rect x="194" y="34" width="16" height="16" transform="rotate(0,202,42)"/><path d="M 194 50v 16h 16v -8a 8 8, 0, 0, 0, -8 -8" transform="rotate(180,202,58)"/><path d="M 194 98v 16h 8a 8 8, 0, 0, 0, 0 -16" transform="rotate(180,202,106)"/><path d="M 194 130v 16h 8a 8 8, 0, 0, 0, 0 -16" transform="rotate(-90,202,138)"/><path d="M 194 146v 16h 16v -8a 8 8, 0, 0, 0, -8 -8" transform="rotate(90,202,154)"/><path d="M 194 178v 16h 16v -8a 8 8, 0, 0, 0, -8 -8" transform="rotate(-90,202,186)"/><path d="M 194 194v 16h 16v -8a 8 8, 0, 0, 0, -8 -8" transform="rotate(90,202,202)"/><path d="M 194 226v 16h 8a 8 8, 0, 0, 0, 0 -16" transform="rotate(180,202,234)"/><rect x="194" y="274" width="16" height="16" transform="rotate(0,202,282)"/><circle cx="202" cy="314" r="8" transform="rotate(0,202,314)"/><path d="M 194 338v 16h 8a 8 8, 0, 0, 0, 0 -16" transform="rotate(0,202,346)"/><path d="M 194 386v 16h 16v -8a 8 8, 0, 0, 0, -8 -8" transform="rotate(-90,202,394)"/><rect x="194" y="402" width="16" height="16" transform="rotate(0,202,410)"/><path d="M 194 418v 16h 8a 8 8, 0, 0, 0, 0 -16" transform="rotate(90,202,426)"/><path d="M 194 466v 16h 8a 8 8, 0, 0, 0, 0 -16" transform="rotate(180,202,474)"/><path d="M 210 18v 16h 16v -8a 8 8, 0, 0, 0, -8 -8" transform="rotate(0,218,26)"/><rect x="210" y="34" width="16" height="16" transform="rotate(0,218,42)"/><path d="M 210 50v 16h 16v -8a 8 8, 0, 0, 0, -8 -8" transform="rotate(90,218,58)"/><path d="M 210 82v 16h 16v -8a 8 8, 0, 0, 0, -8 -8" transform="rotate(-90,218,90)"/><rect x="210" y="98" width="16" height="16" transform="rotate(0,218,106)"/><path d="M 210 114v 16h 8a 8 8, 0, 0, 0, 0 -16" transform="rotate(90,218,122)"/><path d="M 210 162v 16h 16v -8a 8 8, 0, 0, 0, -8 -8" transform="rotate(-90,218,170)"/><rect x="210" y="178" width="16" height="16" transform="rotate(0,218,186)"/><rect x="210" y="226" width="16" height="16" transform="rotate(0,218,234)"/><path d="M 210 258v 16h 16v -8a 8 8, 0, 0, 0, -8 -8" transform="rotate(-90,218,266)"/><rect x="210" y="274" width="16" height="16" transform="rotate(0,218,282)"/><path d="M 210 290v 16h 8a 8 8, 0, 0, 0, 0 -16" transform="rotate(90,218,298)"/><path d="M 210 322v 16h 8a 8 8, 0, 0, 0, 0 -16" transform="rotate(180,218,330)"/><circle cx="218" cy="362" r="8" transform="rotate(0,218,362)"/><rect x="210" y="386" width="16" height="16" transform="rotate(0,218,394)"/><path d="M 210 434v 16h 16v -8a 8 8, 0, 0, 0, -8 -8" transform="rotate(-90,218,442)"/><rect x="210" y="450" width="16" height="16" transform="rotate(0,218,458)"/><rect x="210" y="466" width="16" height="16" transform="rotate(0,218,474)"/><rect x="226" y="82" width="16" height="16" transform="rotate(0,234,90)"/><rect x="226" y="98" width="16" height="16" transform="rotate(0,234,106)"/><path d="M 226 146v 16h 16v -8a 8 8, 0, 0, 0, -8 -8" transform="rotate(-90,234,154)"/><rect x="226" y="162" width="16" height="16" transform="rotate(0,234,170)"/><rect x="226" y="178" width="16" height="16" transform="rotate(0,234,186)"/><path d="M 226 226v 16h 8a 8 8, 0, 0, 0, 0 -16" transform="rotate(0,234,234)"/><path d="M 226 258v 16h 16v -8a 8 8, 0, 0, 0, -8 -8" transform="rotate(0,234,266)"/><path d="M 226 274v 16h 16v -8a 8 8, 0, 0, 0, -8 -8" transform="rotate(90,234,282)"/><path d="M 226 306v 16h 16v -8a 8 8, 0, 0, 0, -8 -8" transform="rotate(-90,234,314)"/><rect x="226" y="322" width="16" height="16" transform="rotate(0,234,330)"/><path d="M 226 370v 16h 16v -8a 8 8, 0, 0, 0, -8 -8" transform="rotate(-90,234,378)"/><rect x="226" y="386" width="16" height="16" transform="rotate(0,234,394)"/><path d="M 226 418v 16h 16v -8a 8 8, 0, 0, 0, -8 -8" transform="rotate(-90,234,426)"/><path d="M 226 434v 16h 16v -8a 8 8, 0, 0, 0, -8 -8" transform="rotate(90,234,442)"/><rect x="226" y="466" width="16" height="16" transform="rotate(0,234,474)"/><path d="M 242 34v 16h 8a 8 8, 0, 0, 0, 0 -16" transform="rotate(180,250,42)"/><rect x="242" y="82" width="16" height="16" transform="rotate(0,250,90)"/><rect x="242" y="98" width="16" height="16" transform="rotate(0,250,106)"/><path d="M 242 114v 16h 8a 8 8, 0, 0, 0, 0 -16" transform="rotate(90,250,122)"/><rect x="242" y="146" width="16" height="16" transform="rotate(0,250,154)"/><path d="M 242 178v 16h 16v -8a 8 8, 0, 0, 0, -8 -8" transform="rotate(0,250,186)"/><path d="M 242 194v 16h 8a 8 8, 0, 0, 0, 0 -16" transform="rotate(90,250,202)"/><path d="M 242 306v 16h 16v -8a 8 8, 0, 0, 0, -8 -8" transform="rotate(0,250,314)"/><rect x="242" y="322" width="16" height="16" transform="rotate(0,250,330)"/><rect x="242" y="338" width="16" height="16" transform="rotate(0,250,346)"/><rect x="242" y="354" width="16" height="16" transform="rotate(0,250,362)"/><rect x="242" y="370" width="16" height="16" transform="rotate(0,250,378)"/><rect x="242" y="386" width="16" height="16" transform="rotate(0,250,394)"/><rect x="242" y="402" width="16" height="16" transform="rotate(0,250,410)"/><rect x="242" y="418" width="16" height="16" transform="rotate(0,250,426)"/><path d="M 242 450v 16h 8a 8 8, 0, 0, 0, 0 -16" transform="rotate(-90,250,458)"/><path d="M 242 466v 16h 16v -8a 8 8, 0, 0, 0, -8 -8" transform="rotate(90,250,474)"/><path d="M 258 34v 16h 16v -8a 8 8, 0, 0, 0, -8 -8" transform="rotate(0,266,42)"/><rect x="258" y="50" width="16" height="16" transform="rotate(0,266,58)"/><rect x="258" y="66" width="16" height="16" transform="rotate(0,266,74)"/><path d="M 258 82v 16h 16v -8a 8 8, 0, 0, 0, -8 -8" transform="rotate(90,266,90)"/><rect x="258" y="146" width="16" height="16" transform="rotate(0,266,154)"/><path d="M 258 162v 16h 16v -8a 8 8, 0, 0, 0, -8 -8" transform="rotate(180,266,170)"/><circle cx="266" cy="218" r="8" transform="rotate(0,266,218)"/><path d="M 258 242v 16h 16v -8a 8 8, 0, 0, 0, -8 -8" transform="rotate(-90,266,250)"/><path d="M 258 258v 16h 8a 8 8, 0, 0, 0, 0 -16" transform="rotate(90,266,266)"/><rect x="258" y="338" width="16" height="16" transform="rotate(0,266,346)"/><rect x="258" y="354" width="16" height="16" transform="rotate(0,266,362)"/><path d="M 258 370v 16h 16v -8a 8 8, 0, 0, 0, -8 -8" transform="rotate(90,266,378)"/><rect x="258" y="402" width="16" height="16" transform="rotate(0,266,410)"/><rect x="258" y="418" width="16" height="16" transform="rotate(0,266,426)"/><circle cx="282" cy="26" r="8" transform="rotate(0,282,26)"/><path d="M 274 50v 16h 16v -8a 8 8, 0, 0, 0, -8 -8" transform="rotate(0,282,58)"/><rect x="274" y="66" width="16" height="16" transform="rotate(0,282,74)"/><path d="M 274 98v 16h 8a 8 8, 0, 0, 0, 0 -16" transform="rotate(-90,282,106)"/><rect x="274" y="114" width="16" height="16" transform="rotate(0,282,122)"/><rect x="274" y="130" width="16" height="16" transform="rotate(0,282,138)"/><rect x="274" y="146" width="16" height="16" transform="rotate(0,282,154)"/><rect x="274" y="162" width="16" height="16" transform="rotate(0,282,170)"/><path d="M 274 178v 16h 8a 8 8, 0, 0, 0, 0 -16" transform="rotate(90,282,186)"/><rect x="274" y="242" width="16" height="16" transform="rotate(0,282,250)"/><path d="M 274 274v 16h 8a 8 8, 0, 0, 0, 0 -16" transform="rotate(180,282,282)"/><path d="M 274 306v 16h 8a 8 8, 0, 0, 0, 0 -16" transform="rotate(-90,282,314)"/><rect x="274" y="322" width="16" height="16" transform="rotate(0,282,330)"/><rect x="274" y="338" width="16" height="16" transform="rotate(0,282,346)"/><path d="M 274 354v 16h 16v -8a 8 8, 0, 0, 0, -8 -8" transform="rotate(90,282,362)"/><path d="M 274 386v 16h 8a 8 8, 0, 0, 0, 0 -16" transform="rotate(-90,282,394)"/><rect x="274" y="402" width="16" height="16" transform="rotate(0,282,410)"/><path d="M 274 418v 16h 16v -8a 8 8, 0, 0, 0, -8 -8" transform="rotate(90,282,426)"/><path d="M 290 66v 16h 8a 8 8, 0, 0, 0, 0 -16" transform="rotate(0,298,74)"/><rect x="290" y="146" width="16" height="16" transform="rotate(0,298,154)"/><rect x="290" y="162" width="16" height="16" transform="rotate(0,298,170)"/><path d="M 290 226v 16h 16v -8a 8 8, 0, 0, 0, -8 -8" transform="rotate(-90,298,234)"/><rect x="290" y="242" width="16" height="16" transform="rotate(0,298,250)"/><rect x="290" y="274" width="16" height="16" transform="rotate(0,298,282)"/><path d="M 290 434v 16h 8a 8 8, 0, 0, 0, 0 -16" transform="rotate(180,298,442)"/><circle cx="314" cy="26" r="8" transform="rotate(0,314,26)"/><path d="M 306 98v 16h 16v -8a 8 8, 0, 0, 0, -8 -8" transform="rotate(-90,314,106)"/><path d="M 306 114v 16h 8a 8 8, 0, 0, 0, 0 -16" transform="rotate(90,314,122)"/><path d="M 306 146v 16h 16v -8a 8 8, 0, 0, 0, -8 -8" transform="rotate(0,314,154)"/><rect x="306" y="162" width="16" height="16" transform="rotate(0,314,170)"/><rect x="306" y="178" width="16" height="16" transform="rotate(0,314,186)"/><path d="M 306 194v 16h 8a 8 8, 0, 0, 0, 0 -16" transform="rotate(90,314,202)"/><path d="M 306 226v 16h 16v -8a 8 8, 0, 0, 0, -8 -8" transform="rotate(0,314,234)"/><rect x="306" y="242" width="16" height="16" transform="rotate(0,314,250)"/><rect x="306" y="258" width="16" height="16" transform="rotate(0,314,266)"/><rect x="306" y="274" width="16" height="16" transform="rotate(0,314,282)"/><path d="M 306 290v 16h 16v -8a 8 8, 0, 0, 0, -8 -8" transform="rotate(180,314,298)"/><circle cx="314" cy="346" r="8" transform="rotate(0,314,346)"/><path d="M 306 370v 16h 8a 8 8, 0, 0, 0, 0 -16" transform="rotate(180,314,378)"/><path d="M 306 418v 16h 16v -8a 8 8, 0, 0, 0, -8 -8" transform="rotate(-90,314,426)"/><rect x="306" y="434" width="16" height="16" transform="rotate(0,314,442)"/><path d="M 322 82v 16h 8a 8 8, 0, 0, 0, 0 -16" transform="rotate(-90,330,90)"/><path d="M 322 98v 16h 16v -8a 8 8, 0, 0, 0, -8 -8" transform="rotate(90,330,106)"/><rect x="322" y="162" width="16" height="16" transform="rotate(0,330,170)"/><circle cx="330" cy="218" r="8" transform="rotate(0,330,218)"/><rect x="322" y="290" width="16" height="16" transform="rotate(0,330,298)"/><path d="M 322 354v 16h 16v -8a 8 8, 0, 0, 0, -8 -8" transform="rotate(-90,330,362)"/><rect x="322" y="370" width="16" height="16" transform="rotate(0,330,378)"/><path d="M 322 386v 16h 16v -8a 8 8, 0, 0, 0, -8 -8" transform="rotate(180,330,394)"/><path d="M 322 418v 16h 16v -8a 8 8, 0, 0, 0, -8 -8" transform="rotate(0,330,426)"/><rect x="322" y="434" width="16" height="16" transform="rotate(0,330,442)"/><circle cx="330" cy="474" r="8" transform="rotate(0,330,474)"/><path d="M 338 34v 16h 8a 8 8, 0, 0, 0, 0 -16" transform="rotate(-90,346,42)"/><path d="M 338 50v 16h 8a 8 8, 0, 0, 0, 0 -16" transform="rotate(90,346,58)"/><circle cx="346" cy="122" r="8" transform="rotate(0,346,122)"/><path d="M 338 146v 16h 16v -8a 8 8, 0, 0, 0, -8 -8" transform="rotate(-90,346,154)"/><rect x="338" y="162" width="16" height="16" transform="rotate(0,346,170)"/><path d="M 338 194v 16h 8a 8 8, 0, 0, 0, 0 -16" transform="rotate(180,346,202)"/><circle cx="346" cy="234" r="8" transform="rotate(0,346,234)"/><path d="M 338 274v 16h 8a 8 8, 0, 0, 0, 0 -16" transform="rotate(-90,346,282)"/><rect x="338" y="290" width="16" height="16" transform="rotate(0,346,298)"/><path d="M 338 306v 16h 16v -8a 8 8, 0, 0, 0, -8 -8" transform="rotate(180,346,314)"/><path d="M 338 338v 16h 16v -8a 8 8, 0, 0, 0, -8 -8" transform="rotate(-90,346,346)"/><rect x="338" y="354" width="16" height="16" transform="rotate(0,346,362)"/><rect x="338" y="370" width="16" height="16" transform="rotate(0,346,378)"/><rect x="338" y="386" width="16" height="16" transform="rotate(0,346,394)"/><path d="M 338 402v 16h 16v -8a 8 8, 0, 0, 0, -8 -8" transform="rotate(180,346,410)"/><path d="M 338 434v 16h 16v -8a 8 8, 0, 0, 0, -8 -8" transform="rotate(0,346,442)"/><path d="M 338 450v 16h 16v -8a 8 8, 0, 0, 0, -8 -8" transform="rotate(180,346,458)"/><path d="M 354 146v 16h 16v -8a 8 8, 0, 0, 0, -8 -8" transform="rotate(0,362,154)"/><rect x="354" y="162" width="16" height="16" transform="rotate(0,362,170)"/><rect x="354" y="178" width="16" height="16" transform="rotate(0,362,186)"/><path d="M 354 194v 16h 16v -8a 8 8, 0, 0, 0, -8 -8" transform="rotate(90,362,202)"/><rect x="354" y="290" width="16" height="16" transform="rotate(0,362,298)"/><rect x="354" y="306" width="16" height="16" transform="rotate(0,362,314)"/><rect x="354" y="338" width="16" height="16" transform="rotate(0,362,346)"/><rect x="354" y="402" width="16" height="16" transform="rotate(0,362,410)"/><path d="M 354 418v 16h 8a 8 8, 0, 0, 0, 0 -16" transform="rotate(90,362,426)"/><rect x="354" y="450" width="16" height="16" transform="rotate(0,362,458)"/><path d="M 354 466v 16h 8a 8 8, 0, 0, 0, 0 -16" transform="rotate(90,362,474)"/><path d="M 370 178v 16h 8a 8 8, 0, 0, 0, 0 -16" transform="rotate(0,378,186)"/><path d="M 370 210v 16h 8a 8 8, 0, 0, 0, 0 -16" transform="rotate(180,378,218)"/><path d="M 370 290v 16h 16v -8a 8 8, 0, 0, 0, -8 -8" transform="rotate(0,378,298)"/><rect x="370" y="306" width="16" height="16" transform="rotate(0,378,314)"/><rect x="370" y="322" width="16" height="16" transform="rotate(0,378,330)"/><rect x="370" y="338" width="16" height="16" transform="rotate(0,378,346)"/><circle cx="378" cy="378" r="8" transform="rotate(0,378,378)"/><rect x="370" y="402" width="16" height="16" transform="rotate(0,378,410)"/><path d="M 370 434v 16h 8a 8 8, 0, 0, 0, 0 -16" transform="rotate(-90,378,442)"/><path d="M 370 450v 16h 16v -8a 8 8, 0, 0, 0, -8 -8" transform="rotate(90,378,458)"/><path d="M 386 146v 16h 8a 8 8, 0, 0, 0, 0 -16" transform="rotate(-90,394,154)"/><path d="M 386 162v 16h 8a 8 8, 0, 0, 0, 0 -16" transform="rotate(90,394,170)"/><path d="M 386 194v 16h 8a 8 8, 0, 0, 0, 0 -16" transform="rotate(-90,394,202)"/><rect x="386" y="210" width="16" height="16" transform="rotate(0,394,218)"/><path d="M 386 258v 16h 8a 8 8, 0, 0, 0, 0 -16" transform="rotate(180,394,266)"/><rect x="386" y="338" width="16" height="16" transform="rotate(0,394,346)"/><rect x="386" y="402" width="16" height="16" transform="rotate(0,394,410)"/><path d="M 402 178v 16h 8a 8 8, 0, 0, 0, 0 -16" transform="rotate(180,410,186)"/><rect x="402" y="210" width="16" height="16" transform="rotate(0,410,218)"/><rect x="402" y="226" width="16" height="16" transform="rotate(0,410,234)"/><rect x="402" y="242" width="16" height="16" transform="rotate(0,410,250)"/><path d="M 402 258v 16h 16v -8a 8 8, 0, 0, 0, -8 -8" transform="rotate(90,410,266)"/><circle cx="410" cy="314" r="8" transform="rotate(0,410,314)"/><path d="M 402 338v 16h 16v -8a 8 8, 0, 0, 0, -8 -8" transform="rotate(0,410,346)"/><rect x="402" y="354" width="16" height="16" transform="rotate(0,410,362)"/><rect x="402" y="370" width="16" height="16" transform="rotate(0,410,378)"/><rect x="402" y="386" width="16" height="16" transform="rotate(0,410,394)"/><rect x="402" y="402" width="16" height="16" transform="rotate(0,410,410)"/><rect x="402" y="418" width="16" height="16" transform="rotate(0,410,426)"/><path d="M 402 434v 16h 16v -8a 8 8, 0, 0, 0, -8 -8" transform="rotate(180,410,442)"/><circle cx="410" cy="474" r="8" transform="rotate(0,410,474)"/><path d="M 418 146v 16h 16v -8a 8 8, 0, 0, 0, -8 -8" transform="rotate(-90,426,154)"/><rect x="418" y="162" width="16" height="16" transform="rotate(0,426,170)"/><rect x="418" y="178" width="16" height="16" transform="rotate(0,426,186)"/><rect x="418" y="210" width="16" height="16" transform="rotate(0,426,218)"/><rect x="418" y="226" width="16" height="16" transform="rotate(0,426,234)"/><path d="M 418 274v 16h 16v -8a 8 8, 0, 0, 0, -8 -8" transform="rotate(-90,426,282)"/><path d="M 418 290v 16h 8a 8 8, 0, 0, 0, 0 -16" transform="rotate(90,426,298)"/><circle cx="426" cy="330" r="8" transform="rotate(0,426,330)"/><path d="M 418 402v 16h 8a 8 8, 0, 0, 0, 0 -16" transform="rotate(0,426,410)"/><path d="M 418 434v 16h 16v -8a 8 8, 0, 0, 0, -8 -8" transform="rotate(0,426,442)"/><path d="M 418 450v 16h 8a 8 8, 0, 0, 0, 0 -16" transform="rotate(90,426,458)"/><rect x="434" y="146" width="16" height="16" transform="rotate(0,442,154)"/><path d="M 434 178v 16h 8a 8 8, 0, 0, 0, 0 -16" transform="rotate(0,442,186)"/><rect x="434" y="210" width="16" height="16" transform="rotate(0,442,218)"/><rect x="434" y="226" width="16" height="16" transform="rotate(0,442,234)"/><path d="M 434 258v 16h 8a 8 8, 0, 0, 0, 0 -16" transform="rotate(-90,442,266)"/><rect x="434" y="274" width="16" height="16" transform="rotate(0,442,282)"/><path d="M 434 338v 16h 8a 8 8, 0, 0, 0, 0 -16" transform="rotate(180,442,346)"/><circle cx="442" cy="394" r="8" transform="rotate(0,442,394)"/><circle cx="442" cy="474" r="8" transform="rotate(0,442,474)"/><path d="M 450 146v 16h 16v -8a 8 8, 0, 0, 0, -8 -8" transform="rotate(0,458,154)"/><path d="M 450 162v 16h 8a 8 8, 0, 0, 0, 0 -16" transform="rotate(90,458,170)"/><rect x="450" y="210" width="16" height="16" transform="rotate(0,458,218)"/><rect x="450" y="226" width="16" height="16" transform="rotate(0,458,234)"/><path d="M 450 242v 16h 8a 8 8, 0, 0, 0, 0 -16" transform="rotate(90,458,250)"/><path d="M 450 274v 16h 8a 8 8, 0, 0, 0, 0 -16" transform="rotate(0,458,282)"/><rect x="450" y="338" width="16" height="16" transform="rotate(0,458,346)"/><path d="M 450 402v 16h 8a 8 8, 0, 0, 0, 0 -16" transform="rotate(-90,458,410)"/><path d="M 450 418v 16h 16v -8a 8 8, 0, 0, 0, -8 -8" transform="rotate(180,458,426)"/><path d="M 450 450v 16h 8a 8 8, 0, 0, 0, 0 -16" transform="rotate(180,458,458)"/><path d="M 466 178v 16h 8a 8 8, 0, 0, 0, 0 -16" transform="rotate(-90,474,186)"/><rect x="466" y="194" width="16" height="16" transform="rotate(0,474,202)"/><path d="M 466 210v 16h 16v -8a 8 8, 0, 0, 0, -8 -8" transform="rotate(90,474,218)"/><circle cx="474" cy="266" r="8" transform="rotate(0,474,266)"/><path d="M 466 306v 16h 8a 8 8, 0, 0, 0, 0 -16" transform="rotate(-90,474,314)"/><rect x="466" y="322" width="16" height="16" transform="rotate(0,474,330)"/><rect x="466" y="338" width="16" height="16" transform="rotate(0,474,346)"/><path d="M 466 354v 16h 8a 8 8, 0, 0, 0, 0 -16" transform="rotate(90,474,362)"/><circle cx="474" cy="394" r="8" transform="rotate(0,474,394)"/><path d="M 466 418v 16h 8a 8 8, 0, 0, 0, 0 -16" transform="rotate(0,474,426)"/><path d="M 466 450v 16h 8a 8 8, 0, 0, 0, 0 -16" transform="rotate(0,474,458)"/></clipPath><clipPath id="clip-path-corners-square-color-0-0"><path clip-rule="evenodd" d="M 18 58v 32a 40 40, 0, 0, 0, 40 40h 32a 40 40, 0, 0, 0, 40 -40v -32a 40 40, 0, 0, 0, -40 -40h -32a 40 40, 0, 0, 0, -40 40M 58 34h 32a 24 24, 0, 0, 1, 24 24v 32a 24 24, 0, 0, 1, -24 24h -32a 24 24, 0, 0, 1, -24 -24v -32a 24 24, 0, 0, 1, 24 -24" transform="rotate(0,74,74)"/></clipPath><clipPath id="clip-path-corners-dot-color-0-0"><circle cx="74" cy="74" r="24" transform="rotate(0,74,74)"/></clipPath><clipPath id="clip-path-corners-square-color-1-0"><path clip-rule="evenodd" d="M 370 58v 32a 40 40, 0, 0, 0, 40 40h 32a 40 40, 0, 0, 0, 40 -40v -32a 40 40, 0, 0, 0, -40 -40h -32a 40 40, 0, 0, 0, -40 40M 410 34h 32a 24 24, 0, 0, 1, 24 24v 32a 24 24, 0, 0, 1, -24 24h -32a 24 24, 0, 0, 1, -24 -24v -32a 24 24, 0, 0, 1, 24 -24" transform="rotate(90,426,74)"/></clipPath><clipPath id="clip-path-corners-dot-color-1-0"><circle cx="426" cy="74" r="24" transform="rotate(90,426,74)"/></clipPath><clipPath id="clip-path-corners-square-color-0-1"><path clip-rule="evenodd" d="M 18 410v 32a 40 40, 0, 0, 0, 40 40h 32a 40 40, 0, 0, 0, 40 -40v -32a 40 40, 0, 0, 0, -40 -40h -32a 40 40, 0, 0, 0, -40 40M 58 386h 32a 24 24, 0, 0, 1, 24 24v 32a 24 24, 0, 0, 1, -24 24h -32a 24 24, 0, 0, 1, -24 -24v -32a 24 24, 0, 0, 1, 24 -24" transform="rotate(-90,74,426)"/></clipPath><clipPath id="clip-path-corners-dot-color-0-1"><circle cx="74" cy="426" r="24" transform="rotate(-90,74,426)"/></clipPath></defs><rect x="0" y="0" height="500" width="500" clip-path="url('#clip-path-background-color')" fill="#fff"/><rect x="0" y="0" height="500" width="500" clip-path="url('#clip-path-dot-color')" fill="#000000"/><rect x="18" y="18" height="112" width="112" clip-path="url('#clip-path-corners-square-color-0-0')" fill="#000000"/><rect x="50" y="50" height="48" width="48" clip-path="url('#clip-path-corners-dot-color-0-0')" fill="#000000"/><rect x="370" y="18" height="112" width="112" clip-path="url('#clip-path-corners-square-color-1-0')" fill="#000000"/><rect x="402" y="50" height="48" width="48" clip-path="url('#clip-path-corners-dot-color-1-0')" fill="#000000"/><rect x="18" y="370" height="112" width="112" clip-path="url('#clip-path-corners-square-color-0-1')" fill="#000000"/><rect x="50" y="402" height="48" width="48" clip-path="url('#clip-path-corners-dot-color-0-1')" fill="#000000"/></svg>